Rive-Rolf
2012

Rive-Rolf har i tiår spilt skurken i et arkadespill, men han lengter etter å bli like godt likt som spillets helt Fikse-Felix. Han gir seg ut på en actionfylt reise med håp om å kunne bevise for alle at han også er en helt. På sin ferd finner han veien inn i andre spillverdener og han møter den rampete racerbilføreren Vanilje von Sukkertopp. Men når en ondskapsfull fiende truer deres verden innser Rive-Rolf at hele spillehallens fremtid hviler i hans enorme hender. 


Skuespillere
Jamie Elman, John C. Reilly, Sarah Silverman, Jack McBrayer, Jane Lynch, Alan Tudyk, Mindy Kaling, Joe Lo Truglio, Ed O'Neill, Dennis Haysbert 

Regissør
Rich Moore 

Originaltittel
Wreck-It Ralph 

Varighet
DVD: 1 tim 41 min 
Blu-ray: 1 tim 41 min  

Aldersgrense
Aldersgrense 7 

Sjangre
Barn og familie, Eventyr, Komedie, Tegnet/Animert 

General
Complete name                            : D:Rive-Rolf-HDrip norsk tale. Robban.mp4
Format                                   : MPEG-4
Format profile                           : Base Media / Version 2
Codec ID                                 : mp42
File size                                : 1.24 GiB
Duration                                 : 1h 41mn
Overall bit rate mode                    : Variable
Overall bit rate                         : 1 755 Kbps
Movie name                               : rcdivx-wreckit-no-720p
Encoded date                             : UTC 2013-06-15 01:15:13
Tagged date                              : UTC 2013-06-15 01:33:41
Writing application                      : DVDFab

Video
ID                                       : 1
Format                                   : AVC
Format/Info                              : Advanced Video Codec
Format profile                           : Main@L3.0
Format settings, CABAC                   : Yes
Format settings, ReFrames                : 1 frame
Format settings, GOP                     : M=1, N=15
Codec ID                                 : avc1
Codec ID/Info                            : Advanced Video Coding
Duration                                 : 1h 41mn
Bit rate mode                            : Variable
Bit rate                                 : 1 304 Kbps
Maximum bit rate                         : 1 956 Kbps
Width                                    : 720 pixels
Height                                   : 302 pixels
Display aspect ratio                     : 2.40:1
Frame rate mode                          : Variable
Frame rate                               : 23.976 fps
Minimum frame rate                       : 23.974 fps
Maximum frame rate                       : 23.981 fps
Color space                              : YUV
Chroma subsampling                       : 4:2:0
Bit depth                                : 8 bits
Scan type                                : Progressive
Bits/(Pixel*Frame)                       : 0.250
Stream size                              : 944 MiB (74%)
Encoded date                             : UTC 2013-06-15 01:15:13
Tagged date                              : UTC 2013-06-15 01:33:33
Color primaries                          : BT.601 NTSC
Transfer characteristics                 : BT.709
Matrix coefficients                      : BT.601

Audio
ID                                       : 2
Format                                   : AAC
Format/Info                              : Advanced Audio Codec
Format profile                           : LC
Codec ID                                 : 40
Duration                                 : 1h 41mn
Bit rate mode                            : Variable
Bit rate                                 : 447 Kbps
Maximum bit rate                         : 624 Kbps
Channel(s)                               : 6 channels
Channel positions                        : Front: L C R, Side: L R, LFE
Sampling rate                            : 48.0 KHz
Compression mode                         : Lossy
Stream size                              : 324 MiB (25%)
Language                                 : Norwegian
Encoded date                             : UTC 2013-06-15 01:15:13
Tagged date                              : UTC 2013-06-15 01:33:39

